HIERARCHY
ROOT SpineBase
{
  OFFSET 0.000000 0.000000 0.000000
  CHANNELS 6 Xposition Yposition Zposition Zrotation Xrotation Yrotation
  JOINT SpineMid
  {
    OFFSET 0.000000 29.852595 0.000000
    CHANNELS 3 Zrotation Xrotation Yrotation
    JOINT SpineShoulder
    {
      OFFSET 0.053422 22.208628 -0.768897
      CHANNELS 3 Zrotation Xrotation Yrotation
      JOINT Neck
      {
        OFFSET 0.052047 7.376113 -0.564635
        CHANNELS 3 Zrotation Xrotation Yrotation
        JOINT Head
        {
          OFFSET -4.470933 10.200385 -0.012729
          CHANNELS 3 Zrotation Xrotation Yrotation
          End Site
          {
            OFFSET 0 0 0
          }
        }
      }
      JOINT ShoulderLeft
      {
        OFFSET -15.228374 -5.171860 7.634886
        CHANNELS 3 Zrotation Xrotation Yrotation
        JOINT ElbowLeft
        {
          OFFSET -1.196288 -24.901725 0.855251
          CHANNELS 3 Zrotation Xrotation Yrotation
          JOINT WristLeft
          {
            OFFSET 0.708012 -18.108196 -4.887489
            CHANNELS 3 Zrotation Xrotation Yrotation
            JOINT HandLeft
            {
              OFFSET 0.332373 -5.171859 -0.692675
              CHANNELS 3 Zrotation Xrotation Yrotation
              JOINT HandTipLeft
              {
                OFFSET 0.280267 -6.991972 -0.987611
                CHANNELS 3 Zrotation Xrotation Yrotation
                End Site
                {
                  OFFSET 0 0 0
                }
              }
              JOINT ThumbLeft
              {
                OFFSET 3.709408 -0.257869 -4.035993
                CHANNELS 3 Zrotation Xrotation Yrotation
                End Site
                {
                  OFFSET 0 0 0
                }
              }
            }
          }
        }
      }
      JOINT ShoulderRight
      {
        OFFSET 13.450187 -2.517212 -8.884442
        CHANNELS 3 Zrotation Xrotation Yrotation
        JOINT ElbowRight
        {
          OFFSET 4.769503 -22.986435 -3.075949
          CHANNELS 3 Zrotation Xrotation Yrotation
          JOINT WristRight
          {
            OFFSET -3.930241 -19.533674 -3.139072
            CHANNELS 3 Zrotation Xrotation Yrotation
            JOINT HandRight
            {
              OFFSET -2.167748 -4.943192 -0.810100
              CHANNELS 3 Zrotation Xrotation Yrotation
              JOINT HandTipRight
              {
                OFFSET -3.007899 -5.272040 -1.222907
                CHANNELS 3 Zrotation Xrotation Yrotation
                End Site
                {
                  OFFSET 0 0 0
                }
              }
              JOINT ThumbRight
              {
                OFFSET -2.030714 2.006276 -0.690041
                CHANNELS 3 Zrotation Xrotation Yrotation
                End Site
                {
                  OFFSET 0 0 0
                }
              }
            }
          }
        }
      }
    }
  }
  JOINT HipLeft
  {
    OFFSET -5.122225 0.121949 0.030090
    CHANNELS 3 Zrotation Xrotation Yrotation
    JOINT KneeLeft
    {
      OFFSET 3.517931 -27.093775 5.654164
      CHANNELS 3 Zrotation Xrotation Yrotation
      JOINT AnkleLeft
      {
        OFFSET 7.088184 -32.949622 4.765976
        CHANNELS 3 Zrotation Xrotation Yrotation
        JOINT FootLeft
        {
          OFFSET -4.723924 -3.337684 -12.306687
          CHANNELS 3 Zrotation Xrotation Yrotation
          End Site
          {
            OFFSET 0 0 0
          }
        }
      }
    }
  }
  JOINT HipRight
  {
    OFFSET 5.817289 1.325232 -6.443772
    CHANNELS 3 Zrotation Xrotation Yrotation
    JOINT KneeRight
    {
      OFFSET 7.816056 -25.364108 4.887119
      CHANNELS 3 Zrotation Xrotation Yrotation
      JOINT AnkleRight
      {
        OFFSET 2.904354 -33.086565 7.695072
        CHANNELS 3 Zrotation Xrotation Yrotation
        JOINT FootRight
        {
          OFFSET -2.439142 -7.538460 -3.767352
          CHANNELS 3 Zrotation Xrotation Yrotation
          End Site
          {
            OFFSET 0 0 0
          }
        }
      }
    }
  }
}
MOTION
Frames: 8
Frame Time: 0.033333
-32.435718 66.751570 347.069745 3.389986 1.354753 44.318131 -0.486562 0.247099 -44.261981 -0.337607 0.408167 0.073626 14.167156 5.069549 2.093663 0.000000 0.000000 0.000000 -2.724036 -3.782118 -0.127640 -2.437631 -7.239282 0.121704 -1.880389 18.876791 1.750184 47.665739 52.087080 -21.784143 0.000000 0.000000 0.000000 0.000000 0.000000 0.000000 -18.629593 15.335559 7.515141 -3.793729 20.516167 -7.057069 4.740301 10.223579 -9.944947 17.577900 -5.771435 3.019199 0.000000 0.000000 0.000000 0.000000 0.000000 0.000000 -8.290785 5.968853 -45.430332 6.698178 0.311217 1.411627 -0.529830 -5.841114 12.415068 0.000000 0.000000 0.000000 -5.160191 1.372459 -44.908288 -1.577417 -0.572077 -0.182431 -26.478845 34.156991 11.623921 0.000000 0.000000 0.000000
-32.252019 66.605819 346.921769 3.446585 1.506395 44.472282 -0.578569 0.205355 -44.418999 -0.377626 0.329066 0.072932 13.783165 4.901819 2.050229 0.000000 0.000000 0.000000 -2.704258 -3.758746 -0.125459 -2.437678 -7.239350 0.121669 0.704678 19.321171 0.822295 49.371106 52.997977 -24.375317 0.000000 0.000000 0.000000 0.000000 0.000000 0.000000 -17.224720 12.187222 6.072955 -6.545889 20.172593 -5.228108 7.874408 10.117225 -9.078275 16.135926 -3.826331 1.408629 0.000000 0.000000 0.000000 0.000000 0.000000 0.000000 -8.898944 5.827714 -45.679130 6.961953 0.731506 1.495252 -0.522409 -5.789543 12.270997 0.000000 0.000000 0.000000 -5.701080 1.365514 -45.196527 -1.125050 -0.330306 -0.010080 -27.900389 36.665624 12.228018 0.000000 0.000000 0.000000
-32.213744 66.570854 346.899303 3.306650 1.441933 44.476612 -0.503369 0.165935 -44.421560 -0.461419 0.178984 0.068060 13.213528 4.594101 1.897196 0.000000 0.000000 0.000000 -2.724622 -3.635080 -0.119087 -2.305238 -7.090812 0.136417 3.106826 16.219127 -0.263820 84.414228 74.999627 -68.244271 0.000000 0.000000 0.000000 0.000000 0.000000 0.000000 -15.498692 9.127350 4.697550 -13.806040 24.039193 -2.035615 8.095523 7.069022 -7.828086 15.581237 -2.472471 0.576294 0.000000 0.000000 0.000000 0.000000 0.000000 0.000000 -8.649985 5.675095 -45.668432 6.818152 0.725375 1.466044 -0.454656 -5.573458 11.519394 0.000000 0.000000 0.000000 -5.775073 1.451690 -45.260759 -0.727206 -0.244405 0.089811 -24.039359 33.308801 9.839249 0.000000 0.000000 0.000000
-32.294429 66.548277 346.985289 2.981468 1.195692 44.372305 -0.379080 0.148832 -44.314930 -0.565463 0.002323 0.056094 12.714530 4.516240 1.744330 0.000000 0.000000 0.000000 -2.360230 -3.291525 -0.081569 -2.329667 -7.091202 0.133787 2.617716 14.287210 -0.219851 52.797811 64.547771 -34.589782 0.000000 0.000000 0.000000 0.000000 0.000000 0.000000 -14.366604 9.046942 4.499007 -20.653613 25.621951 0.106562 6.996636 5.223793 -7.283409 12.565935 -1.072138 -0.344761 0.000000 0.000000 0.000000 0.000000 0.000000 0.000000 -7.801184 5.475554 -45.480932 5.631445 0.807343 1.336976 0.362514 -5.771418 11.059298 0.000000 0.000000 0.000000 -5.223061 1.369313 -45.106768 -0.738007 -0.291348 0.066412 -22.798002 31.389741 9.141199 0.000000 0.000000 0.000000
-32.503158 66.561826 347.121059 2.498664 0.853580 43.967679 -0.266504 0.122442 -43.910829 -0.640935 -0.154568 0.039631 12.100351 4.385694 1.548306 0.000000 0.000000 0.000000 -1.322183 -2.414438 -0.022011 -2.829691 -7.832632 0.089307 1.857375 14.999344 0.072611 34.404416 34.138877 -12.114774 0.000000 0.000000 0.000000 0.000000 0.000000 0.000000 -13.169612 10.982321 4.934192 -26.322945 26.904930 0.896672 1.235428 2.857453 -7.778525 12.552231 -1.837984 0.352020 0.000000 0.000000 0.000000 0.000000 0.000000 0.000000 -6.531482 5.047365 -44.942863 4.390470 0.310686 1.050988 0.965534 -5.421867 10.547482 0.000000 0.000000 0.000000 -4.066801 1.003759 -44.533500 -1.412860 -0.500197 -0.136438 -21.492085 30.152450 8.506965 0.000000 0.000000 0.000000
-32.795722 66.668100 347.351082 1.933245 0.405263 43.645067 -0.116254 0.125966 -43.592544 -0.686424 -0.256947 0.021173 11.276217 4.234190 1.356546 0.000000 0.000000 0.000000 -0.606055 -1.972421 0.029384 -2.982236 -7.956859 0.064991 1.558015 15.970763 0.240929 25.452500 14.055225 -4.764555 0.000000 0.000000 0.000000 0.000000 0.000000 0.000000 -11.747882 14.380142 5.726743 -31.633192 27.444178 0.446718 -1.083253 0.759564 -8.426507 7.138671 -3.762444 0.127144 0.000000 0.000000 0.000000 0.000000 0.000000 0.000000 -4.806650 4.755007 -44.421654 3.103672 -0.411312 0.715155 1.453979 -5.117509 9.983753 0.000000 0.000000 0.000000 -2.402454 0.569376 -43.923499 -2.499826 -0.885810 -0.483527 -20.349768 29.609476 7.954808 0.000000 0.000000 0.000000
-33.002493 66.813385 347.572827 1.478181 -0.009604 43.504040 -0.011428 0.155480 -43.458284 -1.362937 -0.094186 -0.048080 11.046135 3.858055 1.278122 0.000000 0.000000 0.000000 0.425119 -2.049978 0.120646 -2.749130 -7.792506 0.019543 -0.110213 16.299562 0.851705 22.197047 3.809487 -2.499088 0.000000 0.000000 0.000000 0.000000 0.000000 0.000000 -10.355859 19.151054 7.116414 -36.554310 28.193792 -1.297301 -0.879630 -4.024941 -9.179026 0.812079 -3.491450 -0.645430 0.000000 0.000000 0.000000 0.000000 0.000000 0.000000 -3.399719 4.670080 -44.124485 2.264666 -0.891775 0.494275 1.735576 -4.998180 9.423488 0.000000 0.000000 0.000000 -1.065667 1.024494 -43.494388 -2.740670 -1.657789 -0.821667 -19.618614 29.704566 7.467174 0.000000 0.000000 0.000000
-33.154919 67.047825 347.770546 1.079530 -0.382932 43.283162 0.026755 0.181708 -43.246371 -0.974287 0.232892 -0.032314 9.783088 3.353775 1.152325 0.000000 0.000000 0.000000 0.182008 -2.463545 0.128447 -2.430779 -7.250171 0.011619 -2.536905 15.820092 1.665614 22.000806 -0.198560 -1.988437 0.000000 0.000000 0.000000 0.000000 0.000000 0.000000 -9.557671 24.605165 8.441067 -41.785892 27.455950 -4.425781 -2.213215 -5.093913 -10.176038 -3.565325 -7.543491 -1.226561 0.000000 0.000000 0.000000 0.000000 0.000000 0.000000 -2.269564 4.683767 -43.789917 1.617165 -1.362125 0.300568 2.030987 -4.826121 8.924361 0.000000 0.000000 0.000000 -0.276252 0.233529 -43.263219 -3.288681 -1.025244 -0.748414 -19.342803 30.343699 6.947643 0.000000 0.000000 0.000000
